<?xml version="1.0" standalone="no"?>
<!DOCTYPE svg PUBLIC "-//W3C//DTD SVG 20010904//EN"
 "http://www.w3.org/TR/2001/REC-SVG-20010904/DTD/svg10.dtd">
<svg version="1.0" xmlns="http://www.w3.org/2000/svg"
 width="360.000000pt" height="360.000000pt" viewBox="0 0 360.000000 360.000000"
 preserveAspectRatio="xMidYMid meet">

<g transform="translate(0.000000,360.000000) scale(0.100000,-0.100000)"
fill="#000000" stroke="none">
<path d="M1845 3322 c-13 -13 -16 -13 -10 -2 7 13 6 13 -7 0 -13 -14 -64 -167
-75 -229 -5 -31 -71 -269 -80 -291 -3 -8 -7 -19 -8 -25 0 -5 -4 -17 -7 -25 -3
-8 -18 -53 -33 -100 -28 -92 -32 -102 -63 -170 -18 -39 -34 -82 -37 -100 0 -3
-8 -21 -17 -40 -22 -47 -88 -227 -88 -240 0 -6 -4 -18 -9 -28 -17 -32 -51
-112 -51 -120 0 -5 -9 -27 -20 -50 -11 -22 -20 -45 -20 -49 0 -5 -15 -47 -33
-93 -41 -105 -53 -160 -35 -160 29 0 179 41 278 75 105 37 341 148 435 205 28
16 57 33 65 37 23 10 190 126 216 148 6 6 38 32 70 59 124 104 288 281 335
362 82 139 117 213 149 317 17 56 35 114 40 129 5 17 4 30 -1 34 -6 3 -5 11 2
20 9 11 7 14 -10 14 -13 0 -19 4 -16 11 4 6 -2 13 -14 16 -11 3 -19 9 -16 13
7 11 -83 52 -96 44 -6 -3 -9 2 -7 12 2 11 -2 18 -9 17 -7 -2 -13 1 -13 6 0 5
-9 11 -20 14 -13 3 -18 1 -14 -6 3 -7 -1 -4 -9 6 -8 9 -20 17 -27 17 -8 0 -22
8 -33 18 -11 9 -17 11 -13 5 4 -7 2 -13 -3 -13 -6 0 -11 4 -11 9 0 5 -12 17
-27 27 -20 13 -25 13 -18 3 6 -9 3 -8 -5 1 -9 10 -26 15 -40 13 -17 -2 -21 0
-12 6 11 7 11 9 -2 14 -9 4 -16 2 -16 -3 0 -5 -7 -7 -15 -4 -8 4 -13 10 -10
14 3 5 -5 6 -17 2 -14 -3 -19 -1 -14 6 7 11 -24 9 -43 -3 -5 -3 -12 -1 -16 5
-3 5 2 10 12 11 16 0 16 1 -2 8 -11 5 -23 7 -27 4 -5 -2 -8 2 -8 9 0 9 -3 9
-10 -2 -8 -12 -10 -12 -10 -1 0 11 -3 11 -17 0 -11 -10 -14 -10 -9 -1 4 6 4
12 -1 13 -21 2 -45 8 -50 13 -3 3 -14 1 -24 -5 -14 -7 -19 -7 -17 3 2 8 -12
13 -45 13 -30 1 -52 7 -58 16 -7 12 -9 12 -9 -1 0 -9 -3 -11 -8 -5 -8 11 -105
17 -98 6 6 -9 -25 -8 -40 2 -6 3 -19 -2 -29 -11z m920 -272 c3 -6 -1 -7 -9 -4
-18 7 -21 14 -7 14 6 0 13 -4 16 -10z"/>
<path d="M748 2954 c0 -10 -1 -24 -1 -31 0 -7 -3 -11 -6 -10 -4 1 -18 -9 -32
-23 -13 -15 -17 -17 -9 -5 15 20 15 20 -8 0 -14 -12 -21 -26 -18 -38 4 -16 2
-16 -12 -5 -14 11 -15 10 -9 -5 4 -10 3 -16 -2 -13 -7 5 -40 -28 -96 -98 -10
-13 -22 -23 -26 -21 -3 3 -5 -7 -3 -20 1 -14 -2 -23 -7 -19 -5 3 -6 10 -3 16
4 7 2 8 -4 4 -6 -4 -9 -13 -6 -20 3 -8 0 -17 -5 -21 -6 -3 -8 -11 -5 -17 4 -7
2 -8 -5 -4 -9 6 -9 12 1 24 12 15 11 16 -5 3 -9 -8 -15 -16 -12 -19 3 -3 -5
-12 -16 -20 -14 -10 -19 -22 -16 -38 2 -13 1 -21 -4 -19 -4 3 -10 -1 -13 -7
-3 -7 -3 1 0 17 5 30 5 29 -11 -5 -9 -19 -22 -38 -30 -42 -8 -5 -11 -17 -7
-30 3 -14 2 -19 -6 -14 -8 5 -12 -1 -12 -14 0 -12 -4 -19 -9 -15 -5 3 -13 0
-17 -6 -4 -7 -3 -9 3 -6 6 4 14 0 17 -9 3 -8 2 -13 -3 -10 -15 10 -59 -43 -54
-64 3 -12 0 -20 -7 -20 -7 0 -10 -6 -7 -14 3 -8 1 -16 -6 -19 -6 -2 11 -14 39
-27 27 -13 75 -41 107 -63 69 -46 189 -104 235 -113 l32 -6 1 53 c1 30 3 86 4
124 2 81 14 274 21 325 2 19 6 51 9 70 2 19 7 62 10 95 3 33 10 93 17 133 6
40 8 75 4 79 -3 3 -7 -2 -8 -13z m-274 -353 c3 -5 -1 -14 -8 -20 -12 -10 -14
-9 -11 6 2 10 4 19 4 21 2 5 10 2 15 -7z"/>
<path d="M1088 2633 c-10 -2 -18 -8 -18 -13 0 -5 -3 -15 -6 -23 -4 -11 1 -13
18 -10 16 3 24 12 26 29 1 13 1 23 -1 23 -1 -1 -10 -3 -19 -6z"/>
<path d="M1055 2560 c-14 -15 -15 -23 -6 -34 10 -11 8 -17 -6 -25 -15 -10 -14
-11 12 -9 19 2 29 8 27 17 -1 7 2 19 9 27 12 14 6 44 -9 44 -5 0 -17 -9 -27
-20z m25 -10 c0 -5 -5 -10 -11 -10 -5 0 -7 5 -4 10 3 6 8 10 11 10 2 0 4 -4 4
-10z"/>
<path d="M1187 2494 c29 -68 22 -245 -13 -329 -18 -44 -10 -46 10 -2 24 50 46
146 46 197 0 56 -24 143 -45 160 -12 10 -12 6 2 -26z"/>
<path d="M1123 2503 c-16 -6 -17 -29 -3 -38 11 -7 40 18 40 34 0 11 -16 13
-37 4z m22 -13 c-3 -5 -11 -10 -16 -10 -6 0 -7 5 -4 10 3 6 11 10 16 10 6 0 7
-4 4 -10z"/>
<path d="M1030 2469 c0 -4 -3 -14 -6 -23 -5 -13 -1 -13 25 -3 38 14 39 23 6
29 -14 3 -25 2 -25 -3z"/>
<path d="M922 2448 c-30 -38 -80 -188 -62 -188 4 0 10 18 14 41 4 22 19 67 35
100 29 60 31 69 13 47z"/>
<path d="M1146 2445 c-11 -8 -17 -17 -14 -21 8 -8 48 14 48 26 0 14 -12 12
-34 -5z"/>
<path d="M1027 2413 c-12 -11 -8 -43 6 -43 6 0 3 -6 -8 -12 -19 -12 -19 -12 5
-19 l25 -7 -22 -7 c-13 -4 -23 -11 -23 -16 0 -5 10 -5 23 0 16 6 22 17 22 39
0 17 3 34 8 38 10 11 9 34 -3 34 -5 0 -7 -7 -4 -15 4 -10 0 -15 -11 -15 -11 0
-15 5 -11 15 6 16 3 19 -7 8z"/>
<path d="M939 2397 c7 -7 14 -8 21 -1 6 6 2 10 -12 11 -16 2 -18 -1 -9 -10z"/>
<path d="M1104 2322 c0 -54 2 -76 6 -57 10 39 10 105 2 127 -4 9 -7 -22 -8
-70z"/>
<path d="M1175 2401 c3 -5 0 -13 -6 -17 -6 -3 -15 0 -20 7 -7 11 -9 10 -9 -3
0 -19 8 -22 34 -12 18 7 22 34 5 34 -5 0 -8 -4 -4 -9z"/>
<path d="M927 2363 c-20 -5 -18 -24 4 -31 8 -3 11 -1 7 3 -4 5 -3 14 3 22 6 7
10 12 8 12 -2 -1 -12 -3 -22 -6z"/>
<path d="M1153 2343 c4 -3 2 -12 -4 -20 -9 -10 -7 -13 9 -13 11 0 22 8 25 20
4 15 0 20 -16 20 -11 0 -17 -3 -14 -7z"/>
<path d="M950 2285 c0 -14 2 -25 4 -25 2 0 6 11 8 25 3 14 1 25 -3 25 -5 0 -9
-11 -9 -25z"/>
<path d="M1010 2269 c-15 -27 -6 -35 22 -21 13 6 17 11 9 11 -11 1 -11 4 -1
16 10 12 10 15 -3 15 -9 0 -21 -9 -27 -21z"/>
<path d="M1158 2283 c-22 -5 -23 -19 -4 -26 8 -3 16 2 19 14 3 10 4 18 4 18
-1 -1 -10 -3 -19 -6z"/>
<path d="M898 2263 c7 -3 16 -2 19 1 4 3 -2 6 -13 5 -11 0 -14 -3 -6 -6z"/>
<path d="M850 2209 c0 -11 4 -18 10 -14 5 3 7 12 3 20 -7 21 -13 19 -13 -6z"/>
<path d="M995 2200 c-8 -13 15 -13 35 0 12 8 11 10 -7 10 -12 0 -25 -4 -28
-10z"/>
<path d="M897 2176 c-4 -10 1 -12 14 -9 23 6 24 9 5 16 -8 3 -17 0 -19 -7z"/>
<path d="M1023 2151 c0 -11 5 -17 9 -15 11 7 10 34 -1 34 -6 0 -9 -9 -8 -19z"/>
<path d="M1121 2161 c-7 -5 -9 -11 -5 -14 5 -3 15 1 22 9 14 16 5 18 -17 5z"/>
<path d="M995 2141 c-3 -5 -1 -12 5 -16 5 -3 10 1 10 9 0 18 -6 21 -15 7z"/>
<path d="M859 2123 c5 -10 10 -22 11 -28 1 -5 3 -12 5 -13 2 -2 2 4 0 15 -2
10 -4 24 -4 31 -1 6 -6 12 -11 12 -7 0 -7 -6 -1 -17z"/>
<path d="M1079 2104 c-10 -12 -8 -14 9 -11 28 4 36 13 18 20 -8 3 -20 -1 -27
-9z"/>
<path d="M3440 2080 c-4 -92 -45 -251 -87 -333 -24 -47 -121 -204 -143 -230
-144 -171 -318 -328 -465 -418 -155 -94 -499 -249 -556 -249 -8 0 -19 -4 -24
-9 -11 -10 -211 -48 -295 -56 -89 -9 -258 -6 -380 5 -106 10 -324 50 -380 70
-14 4 -52 16 -85 26 -33 9 -66 22 -73 27 -6 5 -12 7 -12 4 0 -3 -16 1 -36 9
-20 8 -38 13 -41 10 -9 -9 82 -171 128 -226 161 -193 338 -314 569 -390 251
-83 528 -96 775 -37 49 12 204 69 248 92 27 14 55 25 63 25 8 0 14 3 14 8 0 4
15 14 33 21 17 8 68 39 112 70 44 30 94 64 110 76 198 134 385 403 481 690 33
100 74 274 74 318 0 12 2 59 3 104 3 58 1 80 -7 76 -7 -5 -7 -2 1 8 17 21 6
227 -16 319 l-9 35 -2 -45z"/>
<path d="M1004 2094 c-10 -8 -13 -12 -5 -8 11 5 13 3 8 -9 -4 -12 -1 -17 11
-17 11 0 17 9 18 25 2 29 -5 31 -32 9z"/>
<path d="M1000 2026 c-6 -9 -10 -21 -7 -28 4 -9 6 -7 6 4 1 9 7 18 14 21 6 2
9 7 6 11 -3 4 -12 0 -19 -8z"/>
<path d="M1031 2014 c0 -11 3 -14 6 -6 3 7 2 16 -1 19 -3 4 -6 -2 -5 -13z"/>
<path d="M366 1948 c-9 -12 -16 -33 -16 -45 0 -13 -4 -23 -10 -23 -5 0 -10 5
-10 10 0 6 -8 10 -17 10 -15 0 -13 4 7 20 28 21 23 35 -9 25 -15 -5 -21 -15
-22 -38 0 -31 -1 -31 -10 -7 -13 33 -16 35 -34 20 -20 -16 -20 -41 0 -34 17 7
21 -11 5 -21 -6 -4 -7 -13 -1 -23 13 -25 3 -46 -15 -31 -11 9 -14 8 -14 -4 0
-8 6 -20 14 -26 11 -10 17 -8 29 9 9 13 17 17 22 11 12 -21 36 -11 49 20 l13
30 15 -23 c15 -21 17 -22 33 -7 33 32 29 149 -5 149 -5 0 -16 -10 -24 -22z
m34 -48 c0 -34 -9 -60 -21 -60 -10 0 -12 83 -3 93 12 12 24 -4 24 -33z m-80
-49 c0 -25 -10 -32 -31 -20 -27 14 -23 34 6 35 18 1 25 -3 25 -15z"/>
<path d="M1030 1961 c0 -6 4 -13 10 -16 6 -3 7 1 4 9 -7 18 -14 21 -14 7z"/>
<path d="M996 1936 c6 -15 34 -30 34 -18 0 4 -9 13 -20 19 -16 11 -18 10 -14
-1z"/>
<path d="M191 1854 c0 -11 3 -14 6 -6 3 7 2 16 -1 19 -3 4 -6 -2 -5 -13z"/>
<path d="M180 1799 c0 -9 7 -19 15 -23 11 -4 15 1 15 18 0 13 -6 23 -15 23 -8
0 -15 -8 -15 -18z"/>
<path d="M2490 1590 c0 -15 5 -20 18 -18 9 2 17 10 17 18 0 8 -8 16 -17 18
-13 2 -18 -3 -18 -18z"/>
<path d="M2399 1573 c-36 -15 -36 -15 -43 -90 -7 -89 -8 -163 -1 -163 19 0 55
27 59 45 8 30 66 52 93 35 13 -8 26 -9 46 -1 25 10 27 13 15 29 -20 27 -130
162 -132 161 0 -1 -17 -8 -37 -16z m50 -107 c9 -11 8 -15 -5 -20 -23 -9 -24
-8 -24 14 0 23 13 26 29 6z"/>
<path d="M2151 1482 c-41 -15 -79 -34 -84 -44 -16 -25 8 -95 35 -104 21 -6 21
-7 3 -20 -18 -13 -18 -14 0 -34 24 -26 74 -25 149 4 72 27 83 42 70 92 -13 52
-32 61 -91 45 -79 -22 -93 -24 -93 -12 0 15 42 31 93 36 50 4 62 16 48 44 -15
27 -39 26 -130 -7z m104 -122 c6 -10 -31 -29 -64 -33 -30 -4 -21 18 12 30 41
15 45 15 52 3z"/>
<path d="M303 1467 c-54 -15 -103 -57 -103 -89 0 -36 64 -210 116 -316 47 -96
160 -270 215 -332 l31 -35 -29 45 c-47 76 -51 83 -78 140 -46 94 -73 190 -95
325 -21 132 -24 226 -8 258 10 19 9 19 -49 4z"/>
<path d="M1438 1439 c-2 -15 -12 -25 -27 -29 l-24 -6 26 -17 c16 -10 24 -23
21 -32 -7 -17 11 -21 22 -4 4 7 20 8 43 4 l36 -7 -19 21 c-15 17 -17 24 -8 33
18 18 14 28 -10 28 -12 0 -29 7 -39 16 -16 14 -18 14 -21 -7z"/>
<path d="M1904 1406 c-31 -14 -32 -15 -39 -110 -4 -53 -9 -96 -13 -96 -8 0
-102 61 -102 66 0 3 11 26 25 53 13 27 22 51 19 53 -2 3 -22 0 -43 -5 -29 -8
-43 -19 -55 -44 -19 -40 -32 -42 -40 -7 -6 23 -10 25 -39 19 -18 -4 -35 -10
-39 -14 -4 -4 7 -50 24 -104 29 -86 35 -97 56 -97 13 0 32 5 43 10 18 10 18
13 4 45 -17 43 -8 44 47 5 l43 -29 67 16 c50 12 69 22 77 39 12 27 78 45 91
25 8 -13 80 -5 80 9 0 14 -151 180 -163 180 -7 -1 -26 -7 -43 -14z m66 -112
c0 -8 -7 -14 -15 -14 -10 0 -15 10 -15 26 0 22 2 25 15 14 8 -7 15 -19 15 -26z"/>
<path d="M1278 1343 c-25 -4 -27 -8 -30 -55 l-3 -52 -29 42 c-24 35 -34 42
-62 42 -18 0 -35 -4 -38 -8 -4 -8 21 -256 29 -278 2 -8 15 -9 37 -5 33 7 33 8
31 62 l-2 54 22 -29 c53 -70 50 -68 90 -61 l37 7 -6 54 c-4 30 -5 54 -2 54 3
0 19 -23 37 -51 22 -34 38 -48 48 -45 8 3 20 6 26 6 7 0 18 4 26 9 10 7 -1 28
-50 98 -35 49 -75 105 -89 126 -14 20 -29 36 -35 35 -5 0 -22 -3 -37 -5z"/>
<path d="M1463 1304 c-9 -4 -3 -30 19 -92 42 -119 42 -119 78 -114 16 2 33 9
36 14 3 5 -9 52 -27 104 -32 91 -34 94 -64 93 -16 0 -35 -3 -42 -5z"/>
<path d="M611 1061 c-8 -6 -9 -11 -3 -15 6 -3 14 -1 17 5 9 14 2 20 -14 10z"/>
<path d="M625 1000 c-3 -5 1 -10 9 -10 8 0 18 5 21 10 3 6 -1 10 -9 10 -8 0
-18 -4 -21 -10z"/>
<path d="M645 970 c-7 -11 11 -40 25 -40 4 0 5 11 2 25 -5 26 -16 32 -27 15z"/>
<path d="M670 911 c0 -21 13 -41 26 -41 8 0 14 5 14 10 0 6 -4 10 -10 10 -5 0
-10 7 -10 15 0 8 -4 15 -10 15 -5 0 -10 -4 -10 -9z"/>
<path d="M730 800 c0 -5 5 -10 10 -10 6 0 10 5 10 10 0 6 -4 10 -10 10 -5 0
-10 -4 -10 -10z"/>
<path d="M750 765 c0 -8 9 -19 19 -24 17 -10 18 -9 7 14 -12 28 -26 33 -26 10z"/>
<path d="M685 750 c-16 -11 -25 -20 -20 -20 10 0 64 39 55 40 -3 0 -18 -9 -35
-20z"/>
<path d="M780 711 c0 -5 7 -11 14 -14 10 -4 13 -1 9 9 -6 15 -23 19 -23 5z"/>
<path d="M700 669 c0 -5 -4 -7 -10 -4 -14 9 -12 -1 3 -13 10 -8 13 -6 14 9 1
10 0 19 -3 19 -2 0 -4 -5 -4 -11z"/>
<path d="M820 660 c0 -5 5 -10 10 -10 6 0 10 5 10 10 0 6 -4 10 -10 10 -5 0
-10 -4 -10 -10z"/>
<path d="M835 630 c3 -5 10 -10 16 -10 5 0 9 5 9 10 0 6 -7 10 -16 10 -8 0
-12 -4 -9 -10z"/>
<path d="M863 593 c9 -9 20 -13 24 -9 4 4 1 11 -7 16 -25 16 -35 11 -17 -7z"/>
<path d="M890 563 c0 -12 41 -46 47 -39 3 2 2 9 -2 15 -9 15 -45 34 -45 24z"/>
<path d="M953 505 c0 -8 7 -15 15 -15 12 0 12 3 2 15 -7 8 -13 15 -15 15 -1 0
-2 -7 -2 -15z"/>
</g>
</svg>
